<?xml version="1.0" encoding="UTF-8"?>
<!DOCTYPE svg PUBLIC "-//W3C//DTD SVG 1.1//EN" "http://www.w3.org/Graphics/SVG/1.1/DTD/svg11.dtd">
<svg xmlns="http://www.w3.org/2000/svg" version="1.1" width="706px" height="211px" style="shape-rendering:geometricPrecision; text-rendering:geometricPrecision; image-rendering:optimizeQuality; fill-rule:evenodd; clip-rule:evenodd" xmlns:xlink="http://www.w3.org/1999/xlink">
<g><path style="opacity:1" fill="#fefffe" d="M 50.5,40.5 C 55.8746,40.1718 61.2079,40.5052 66.5,41.5C 73.5825,65.6668 80.5825,89.8335 87.5,114C 114.831,114.5 142.165,114.667 169.5,114.5C 171.617,99.8004 173.95,85.1337 176.5,70.5C 172.519,69.9791 168.519,69.6458 164.5,69.5C 164.338,67.4727 164.505,65.4727 165,63.5C 170.761,64.412 176.595,65.0787 182.5,65.5C 179.608,83.8494 176.608,102.183 173.5,120.5C 145.159,120.167 116.825,120.5 88.5,121.5C 87.3995,123.642 86.3995,125.808 85.5,128C 87.9757,129.309 89.9757,131.142 91.5,133.5C 113.159,134.666 134.826,134.833 156.5,134C 159.723,128.724 164.39,126.724 170.5,128C 178.078,132.635 179.411,138.635 174.5,146C 166.99,151.003 160.99,149.503 156.5,141.5C 135.174,140.334 113.841,140.167 92.5,141C 88.7565,148.681 83.0899,150.681 75.5,147C 70.6945,142.321 69.8611,137.154 73,131.5C 78.2996,129.255 81.4663,125.255 82.5,119.5C 75.8489,95.5611 69.5156,71.5611 63.5,47.5C 59.1667,47.5 54.8333,47.5 50.5,47.5C 50.5,45.1667 50.5,42.8333 50.5,40.5 Z"/></g>
<g><path style="opacity:1" fill="#fdfdfd" d="M 482.5,75.5 C 489.469,74.7207 495.969,76.0541 502,79.5C 503.661,86.9911 501.327,88.9911 495,85.5C 491.465,86.1005 489.132,88.1005 488,91.5C 487.19,96.2574 487.524,100.924 489,105.5C 492.989,108.203 496.823,107.87 500.5,104.5C 503.667,112.059 501.333,116.559 493.5,118C 473.678,120.236 465.178,111.403 468,91.5C 469.181,87.6371 471.014,84.1371 473.5,81C 476.263,78.6258 479.263,76.7925 482.5,75.5 Z"/></g>
<g><path style="opacity:1" fill="#fefefe" d="M 227.5,77.5 C 240.171,77.3334 252.838,77.5001 265.5,78C 266.46,81.73 266.793,85.5633 266.5,89.5C 263.167,89.5 259.833,89.5 256.5,89.5C 256.544,98.553 255.877,107.553 254.5,116.5C 251.555,117.123 248.555,117.456 245.5,117.5C 242.387,117.438 239.554,116.771 237,115.5C 236.5,107.173 236.334,98.84 236.5,90.5C 233.753,90.8134 231.086,90.48 228.5,89.5C 227.567,85.5705 227.234,81.5705 227.5,77.5 Z"/></g>
<g><path style="opacity:1" fill="#fefefe" d="M 565.5,81.5 C 571.48,80.8898 577.147,81.8898 582.5,84.5C 583.833,86.8333 583.833,89.1667 582.5,91.5C 576.67,88.9948 572.837,90.6615 571,96.5C 570.15,100.536 570.65,104.369 572.5,108C 575.939,109.868 579.106,109.368 582,106.5C 583.735,112.244 581.902,116.078 576.5,118C 556.644,119.793 549.477,110.96 555,91.5C 557.106,86.5573 560.606,83.224 565.5,81.5 Z"/></g>
<g><path style="opacity:0.994" fill="#fefefe" d="M 273.5,82.5 C 282.203,82.3551 290.87,82.8551 299.5,84C 305.392,84.2636 308.726,87.2636 309.5,93C 308.905,96.4361 307.239,99.2694 304.5,101.5C 306.957,104.914 309.291,108.414 311.5,112C 309.5,113.333 307.5,114.667 305.5,116C 303.553,116.991 301.553,117.325 299.5,117C 296.132,113.098 293.132,108.931 290.5,104.5C 289.509,108.445 289.176,112.445 289.5,116.5C 284.469,117.544 279.469,117.544 274.5,116.5C 272.388,105.167 272.055,93.8336 273.5,82.5 Z M 289.5,88.5 C 295.362,88.6621 296.695,91.1621 293.5,96C 292.207,96.49 290.873,96.6567 289.5,96.5C 289.5,93.8333 289.5,91.1667 289.5,88.5 Z"/></g>
<g><path style="opacity:1" fill="#fdfdfd" d="M 326.5,82.5 C 334.84,82.3336 343.173,82.5003 351.5,83C 355.972,94.0508 358.972,105.551 360.5,117.5C 356.154,117.666 351.821,117.499 347.5,117C 345.085,115.535 344.085,113.368 344.5,110.5C 342.473,110.338 340.473,110.505 338.5,111C 337.598,113.202 336.598,115.368 335.5,117.5C 330.014,117.387 324.348,117.387 318.5,117.5C 320.068,105.564 322.734,93.8969 326.5,82.5 Z M 340.5,90.5 C 342.13,94.9114 343.13,99.578 343.5,104.5C 341.833,104.5 340.167,104.5 338.5,104.5C 339.167,99.8333 339.833,95.1667 340.5,90.5 Z"/></g>
<g><path style="opacity:1" fill="#fdfdfd" d="M 368.5,82.5 C 378.912,82.0738 389.246,82.5738 399.5,84C 404.888,87.4664 407.221,92.4664 406.5,99C 406.689,110.479 401.022,116.479 389.5,117C 382.508,117.5 375.508,117.666 368.5,117.5C 367.375,105.771 367.375,94.1046 368.5,82.5 Z M 384.5,87.5 C 385.833,87.5 387.167,87.5 388.5,87.5C 390.006,94.9174 389.673,102.251 387.5,109.5C 386.675,110.386 385.675,110.719 384.5,110.5C 384.5,102.833 384.5,95.1667 384.5,87.5 Z"/></g>
<g><path style="opacity:1" fill="#fdfdfd" d="M 414.5,82.5 C 424.5,82.5 434.5,82.5 444.5,82.5C 444.318,84.5914 444.652,86.5914 445.5,88.5C 441.675,89.2652 437.842,89.9319 434,90.5C 431.966,91.9442 431.132,93.9442 431.5,96.5C 434.85,96.335 438.183,96.5017 441.5,97C 442.87,98.4413 443.87,100.108 444.5,102C 440.3,103.367 435.967,103.867 431.5,103.5C 431.5,105.833 431.5,108.167 431.5,110.5C 435.146,109.717 438.812,109.55 442.5,110C 443.423,112.041 443.756,114.208 443.5,116.5C 434.143,116.832 424.81,116.498 415.5,115.5C 413.297,104.569 412.964,93.5694 414.5,82.5 Z"/></g>
<g><path style="opacity:1" fill="#fdfdfd" d="M 519.5,82.5 C 521.017,82.5106 522.184,83.1772 523,84.5C 524.074,88.3189 525.907,91.6522 528.5,94.5C 530.74,91.1204 532.407,87.4537 533.5,83.5C 539.146,82.3822 543.813,84.0489 547.5,88.5C 542.533,100.434 537.033,112.101 531,123.5C 530.439,124.022 529.772,124.355 529,124.5C 524.441,123.257 519.941,121.924 515.5,120.5C 516.352,117.777 517.519,115.11 519,112.5C 519.667,111.167 519.667,109.833 519,108.5C 514.523,102.379 510.69,95.8794 507.5,89C 511.525,86.7272 515.525,84.5605 519.5,82.5 Z"/></g>
<g><path style="opacity:1" fill="#fdfdfd" d="M 592.5,82.5 C 597.762,82.1953 602.928,82.5286 608,83.5C 608.333,90.5 608.667,97.5 609,104.5C 612.149,105.521 615.316,105.688 618.5,105C 619.617,108.073 619.784,111.24 619,114.5C 618.5,115.667 617.667,116.5 616.5,117C 607.745,117.192 599.079,117.359 590.5,117.5C 590.068,105.711 590.734,94.0443 592.5,82.5 Z"/></g>
<g><path style="opacity:1" fill="#fefefe" d="M 625.5,82.5 C 635.522,82.1681 645.522,82.5015 655.5,83.5C 656.348,85.4086 656.682,87.4086 656.5,89.5C 652.131,89.4672 647.798,89.8005 643.5,90.5C 643.5,92.5 643.5,94.5 643.5,96.5C 646.85,96.335 650.183,96.5017 653.5,97C 655.831,99.2002 655.831,101.2 653.5,103C 650.167,103.333 646.833,103.667 643.5,104C 642.424,105.726 642.257,107.559 643,109.5C 646.727,109.959 650.561,109.959 654.5,109.5C 654.674,111.861 655.007,114.194 655.5,116.5C 645.917,116.818 636.417,116.485 627,115.5C 625.546,104.603 625.046,93.6029 625.5,82.5 Z"/></g>
</svg>
